<?xml version="1.0" encoding="UTF-8"?>
<!DOCTYPE svg PUBLIC "-//W3C//DTD SVG 1.1//EN" "http://www.w3.org/Graphics/SVG/1.1/DTD/svg11.dtd">
<!-- Creator: CorelDRAW 2019 (64-Bit) -->
<svg xmlns="http://www.w3.org/2000/svg" xml:space="preserve" width="5.5188in" height="4.59225in" version="1.1" style="shape-rendering:geometricPrecision; text-rendering:geometricPrecision; image-rendering:optimizeQuality; fill-rule:evenodd; clip-rule:evenodd"
viewBox="0 0 5518.81 4592.26"
 xmlns:xlink="http://www.w3.org/1999/xlink"
 xmlns:xodm="http://www.corel.com/coreldraw/odm/2003">
 <defs>
  <style type="text/css">
   <![CDATA[
    .fil2 {fill:#373435}
    .fil0 {fill:#8A288B}
    .fil1 {fill:#D0215A}
   ]]>
  </style>
 </defs>
 <g id="Layer_x0020_1">
  <metadata id="CorelCorpID_0Corel-Layer"/>
  <g id="_2393142348176">
   <g>
    <path class="fil0" d="M4916.88 208.46c309.25,0 559.97,250.72 559.97,559.97 0,309.26 -250.72,559.97 -559.97,559.97 -50.76,0 -99.94,-6.79 -146.69,-19.46l3.96 15.8c-61,-25.92 -138.74,5.15 -227.28,72.84 -194.08,200.28 -388.15,400.54 -582.23,600.82 -60.11,65.24 -85.95,155.49 -79.1,231.04 -111.49,-19.27 -214.09,-56.92 -325.58,-76.19 -21.33,-95.67 -42.67,-191.32 -64,-286.99 96.76,-31.58 185.04,-72.21 245.69,-142.46 165.86,-164.49 331.73,-328.97 497.59,-493.46 91.76,-85.57 144.58,-180.26 145.52,-287.17 -18.04,-54.99 -27.84,-113.72 -27.84,-174.74 0,-309.25 250.72,-559.97 559.97,-559.97zm-111.79 3218.68c-108.76,0.54 -204.94,-52.47 -291.72,-145.53 -164.49,-165.86 -328.97,-331.72 -493.46,-497.59 -70.25,-60.65 -110.88,-148.93 -142.46,-245.69 -95.67,21.33 -191.32,42.67 -286.98,64 -19.27,111.49 -56.92,214.09 -76.19,325.58 75.55,-6.85 165.8,18.99 231.04,79.1 200.27,194.08 400.54,388.15 600.82,582.24 59.37,77.64 90.55,146.99 79.85,204.02 -2.45,7.58 -4.75,15.22 -6.88,22.94l-0.13 0.32 0.05 -0.01c-13.11,47.51 -20.14,97.54 -20.14,149.22 0,309.26 250.71,559.97 559.97,559.97 309.25,0 559.97,-250.71 559.97,-559.97 0,-309.25 -250.71,-559.97 -559.97,-559.97 -53.33,0 -104.92,7.45 -153.77,21.38l0.01 -0.01z"/>
    <circle class="fil1" cx="3381.15" cy="2383.87" r="559.97"/>
   </g>
   <path class="fil2" d="M2331.04 0c640.54,0 1220.67,254.55 1642,666.47l-609.26 569.19 -0.09 0.05c-261.86,-283.42 -627.73,-459.52 -1032.65,-459.52 -796.18,0 -1441.61,680.5 -1441.61,1519.94 0,839.44 645.43,1519.94 1441.61,1519.94 404.93,0 770.8,-176.09 1032.66,-459.52l0.09 0.06 569.38 607.27c-417.7,389.47 -981.56,628.39 -1602.12,628.39 -1287.4,0 -2331.04,-1028.01 -2331.04,-2296.13 0,-1268.12 1043.64,-2296.13 2331.04,-2296.13z"/>
  </g>
 </g>
</svg>
