<?xml version="1.0" standalone="no"?>
<!DOCTYPE svg PUBLIC "-//W3C//DTD SVG 20010904//EN"
 "http://www.w3.org/TR/2001/REC-SVG-20010904/DTD/svg10.dtd">
<svg version="1.0" xmlns="http://www.w3.org/2000/svg"
 width="1060.000000pt" height="1060.000000pt" viewBox="0 0 1060.000000 1060.000000"
 preserveAspectRatio="xMidYMid meet">
<metadata>
Created by potrace 1.11, written by Peter Selinger 2001-2013
</metadata>
<g transform="translate(0.000000,1060.000000) scale(0.100000,-0.100000)"
fill="#000000" stroke="none">
<path d="M4207 9704 c-2 -3 -41 -7 -87 -10 -119 -7 -236 -19 -320 -34 -30 -5
-71 -11 -90 -14 -19 -3 -67 -12 -105 -20 -39 -8 -82 -17 -95 -20 -14 -2 -45
-9 -70 -15 -25 -7 -54 -14 -65 -16 -47 -11 -64 -15 -130 -33 -39 -10 -80 -24
-93 -31 -12 -6 -22 -9 -22 -6 0 3 -16 -1 -35 -9 -20 -9 -39 -15 -43 -16 -19
-2 -88 -25 -98 -32 -7 -5 -20 -11 -30 -13 -11 -2 -44 -14 -74 -25 -30 -12 -72
-28 -93 -36 -21 -8 -61 -26 -88 -39 -27 -14 -51 -25 -54 -25 -3 1 -32 -13 -65
-29 -33 -17 -60 -28 -60 -24 0 3 -8 -1 -17 -9 -25 -21 -103 -59 -103 -50 0 4
-4 2 -8 -4 -4 -6 -45 -32 -92 -58 -97 -54 -94 -51 -220 -131 -334 -209 -660
-486 -926 -784 -27 -30 -56 -62 -64 -71 -8 -9 -42 -49 -75 -90 -62 -77 -71
-89 -93 -114 -6 -8 -12 -20 -12 -26 0 -5 -3 -10 -7 -10 -5 0 -19 -17 -33 -38
-14 -20 -27 -39 -31 -42 -14 -12 -179 -269 -179 -279 0 -6 -4 -11 -9 -11 -5 0
-13 -10 -17 -22 -4 -13 -17 -39 -29 -58 -19 -31 -74 -127 -96 -170 -42 -81
-119 -251 -119 -264 0 -9 -3 -16 -8 -16 -4 0 -15 -22 -25 -48 -9 -27 -24 -65
-32 -85 -8 -20 -15 -39 -15 -42 0 -3 -7 -22 -15 -43 -35 -82 -94 -269 -130
-412 -2 -8 -4 -15 -5 -15 -1 0 -3 -9 -5 -20 -5 -26 -18 -88 -20 -95 -2 -6 -15
-66 -19 -90 -2 -8 -6 -31 -10 -50 -12 -60 -25 -135 -30 -180 -2 -14 -6 -45
-10 -70 -7 -54 -13 -107 -23 -220 -10 -106 -10 -555 0 -670 10 -122 18 -201
23 -230 3 -14 7 -42 9 -64 3 -21 9 -66 15 -100 6 -33 13 -70 15 -81 2 -11 6
-31 9 -45 3 -14 8 -38 11 -55 10 -52 15 -75 31 -133 8 -32 17 -68 20 -82 9
-48 94 -314 121 -380 3 -8 7 -19 9 -25 5 -19 41 -110 57 -147 9 -21 23 -53 31
-70 8 -18 26 -59 40 -90 14 -31 26 -61 26 -67 0 -5 3 -11 8 -13 4 -1 36 -60
72 -130 36 -70 68 -128 73 -128 4 0 7 -5 7 -10 0 -14 119 -209 142 -234 10
-11 18 -25 18 -32 0 -7 3 -14 8 -16 4 -1 36 -43 72 -93 112 -157 229 -299 342
-418 21 -22 38 -41 38 -42 0 -2 140 -140 216 -211 22 -22 67 -61 100 -89 32
-27 66 -57 74 -65 9 -8 28 -24 44 -35 15 -11 42 -32 59 -47 18 -15 35 -28 38
-28 3 0 19 -12 35 -26 35 -30 369 -254 380 -254 4 0 15 -6 23 -14 9 -7 54 -34
101 -59 112 -60 300 -155 305 -156 3 0 20 -7 38 -15 17 -8 66 -28 107 -45 41
-18 84 -36 95 -41 11 -4 47 -18 80 -30 33 -12 83 -30 110 -41 28 -10 55 -19
60 -19 6 0 51 -14 102 -30 51 -17 103 -31 117 -32 15 -1 26 -5 26 -9 0 -3 6
-6 13 -7 12 0 40 -6 92 -19 17 -4 35 -8 40 -9 6 -1 12 -3 15 -4 6 -2 24 -6 70
-14 40 -8 65 -14 65 -16 0 -1 11 -3 25 -4 14 -2 70 -10 125 -20 99 -16 167
-25 235 -31 19 -2 76 -7 125 -11 117 -11 582 -11 710 0 114 10 150 13 150 15
0 1 23 4 50 6 28 2 64 6 80 9 17 3 59 10 95 15 36 6 76 13 90 16 14 3 59 12
100 20 41 8 90 19 108 24 17 5 32 8 32 6 0 -2 24 4 53 14 28 10 60 17 70 15 9
-1 17 1 17 5 0 4 8 7 18 8 9 1 53 14 97 28 44 14 91 28 104 31 13 3 36 11 52
19 15 8 32 15 38 15 5 0 22 5 38 12 15 6 33 12 38 14 23 6 192 77 306 129 331
151 644 344 919 566 52 42 106 86 120 98 101 88 140 125 138 132 -3 7 -186
204 -278 299 -40 42 -90 95 -345 368 -38 42 -81 87 -95 102 -14 14 -81 86
-150 160 -69 73 -146 155 -172 183 l-47 49 -74 -73 c-63 -63 -132 -127 -221
-202 -61 -51 -216 -161 -303 -213 -54 -32 -100 -62 -101 -67 -2 -4 -7 -5 -12
-2 -4 3 -24 -6 -44 -20 -20 -14 -41 -25 -45 -25 -5 0 -34 -14 -65 -30 -31 -17
-59 -30 -63 -31 -5 0 -27 -9 -51 -19 -45 -20 -242 -89 -276 -96 -12 -3 -25 -6
-31 -7 -5 -2 -15 -6 -21 -10 -7 -4 -28 -9 -48 -12 -20 -2 -40 -6 -44 -9 -4 -2
-23 -7 -42 -10 -19 -3 -46 -8 -60 -11 -14 -3 -41 -8 -60 -10 -19 -2 -46 -7
-60 -10 -89 -19 -468 -27 -610 -12 -114 11 -191 22 -240 33 -14 3 -36 7 -50 9
-35 5 -207 51 -257 69 -22 8 -44 12 -47 9 -3 -4 -6 -1 -6 5 0 7 -8 12 -18 12
-43 0 -368 148 -487 222 -123 77 -222 145 -291 200 -41 32 -84 67 -96 76 -38
30 -292 285 -326 327 -17 22 -41 51 -52 65 -11 14 -34 43 -50 65 -17 22 -36
47 -43 55 -7 8 -28 40 -47 70 -19 30 -40 61 -47 68 -6 6 -15 21 -18 32 -3 11
-11 20 -17 20 -6 0 -9 3 -5 6 3 3 -9 29 -27 57 -35 56 -146 280 -170 343 -47
129 -108 301 -110 314 -1 8 -7 33 -14 55 -13 46 -13 49 -56 250 -2 11 -7 40
-10 65 -3 25 -8 56 -11 70 -3 14 -7 61 -10 105 -2 44 -5 80 -6 80 -9 0 -12
322 -4 425 11 134 26 273 31 281 2 4 6 26 9 49 3 24 15 84 26 134 12 50 22 96
23 101 1 6 5 16 10 23 4 7 5 16 2 19 -3 3 -1 12 5 20 6 7 8 13 4 13 -4 0 -2 7
5 15 7 8 10 15 7 15 -16 0 136 398 157 412 6 4 8 8 4 8 -6 0 64 143 109 220
53 91 68 115 74 120 3 3 12 16 19 30 20 38 203 279 255 335 100 107 135 143
211 212 43 40 108 95 144 123 36 28 72 57 81 64 28 23 242 161 289 186 25 13
48 28 51 33 3 5 10 8 15 8 19 -2 44 11 44 21 0 6 2 9 6 6 3 -3 33 8 67 24 67
33 210 90 242 98 6 1 26 8 45 16 36 14 169 52 205 59 11 2 39 9 63 15 23 5 57
12 75 14 18 3 32 5 32 6 0 1 11 3 25 5 14 2 43 6 65 9 197 28 547 28 725 1
116 -18 262 -49 356 -76 60 -17 114 -32 119 -33 6 -1 17 -6 25 -11 8 -5 20
-10 25 -11 24 -4 157 -59 252 -105 56 -27 106 -49 112 -49 6 0 11 -4 11 -10 0
-5 4 -10 10 -10 20 0 322 -194 328 -211 2 -5 8 -9 14 -9 5 0 15 -6 22 -12 7
-7 32 -29 56 -48 84 -69 125 -106 208 -188 l83 -83 52 47 c29 27 79 73 111
104 85 79 111 103 236 220 62 58 129 121 150 140 20 19 70 66 111 104 201 187
306 285 344 321 23 22 70 66 104 97 l62 57 -34 33 c-33 33 -145 134 -222 200
-22 18 -71 58 -110 88 -38 30 -75 59 -81 65 -80 70 -444 296 -622 386 -81 41
-150 79 -154 84 -4 6 -8 7 -8 3 0 -4 -31 9 -70 28 -38 18 -75 34 -83 34 -7 0
-17 4 -23 8 -5 5 -47 24 -94 41 -47 18 -107 41 -134 52 -27 10 -55 19 -62 19
-8 0 -22 4 -32 10 -18 10 -201 67 -237 73 -11 2 -27 7 -35 10 -22 8 -201 50
-225 53 -19 2 -55 9 -101 19 -12 3 -39 7 -60 10 -21 3 -44 8 -51 10 -10 3 -87
14 -153 20 -14 2 -25 4 -25 5 0 1 -29 3 -65 5 -36 2 -83 7 -105 10 -44 8 -631
15 -638 9z"/>
<path d="M9305 9301 c-3 -3 -16 -6 -28 -7 -119 -6 -300 -78 -446 -177 -67 -45
-241 -209 -241 -227 0 -4 -11 -19 -23 -34 -13 -15 -43 -63 -66 -106 -132 -248
-161 -482 -97 -795 1 -5 5 -15 8 -21 14 -21 -2 -187 -21 -223 -5 -9 -10 -20
-10 -26 -3 -23 -64 -134 -104 -186 -36 -49 -134 -159 -140 -159 -1 0 -228
-224 -504 -497 -541 -537 -534 -531 -590 -566 -87 -55 -98 -62 -103 -62 -3 -1
-23 -9 -45 -19 -82 -36 -84 -37 -148 -20 -34 9 -80 18 -102 21 -58 7 -268 10
-280 4 -5 -3 -22 -6 -36 -7 -52 -4 -167 -37 -249 -72 -85 -36 -182 -89 -188
-104 -2 -4 -9 -8 -16 -8 -11 0 -32 -17 -116 -95 -53 -49 -119 -124 -148 -169
-15 -23 -29 -43 -33 -46 -10 -8 -90 -178 -94 -199 -2 -11 -8 -28 -13 -38 -9
-17 -28 -93 -38 -153 -3 -14 -7 -63 -10 -110 -3 -47 -6 -93 -8 -102 -2 -10 -1
-18 2 -18 4 0 7 -17 8 -38 3 -177 90 -403 224 -577 8 -11 49 -54 91 -96 152
-153 333 -249 554 -295 36 -8 149 -17 200 -17 62 0 186 13 199 21 5 3 45 6 88
7 129 4 256 -34 354 -106 45 -33 189 -168 424 -399 42 -41 181 -176 309 -300
395 -381 515 -503 536 -545 11 -22 23 -41 27 -43 13 -6 69 -154 64 -168 -3 -7
-2 -16 3 -18 10 -7 6 -61 -8 -111 -39 -143 -51 -351 -26 -480 6 -35 10 -67 7
-70 -3 -3 0 -5 7 -5 7 0 10 -4 7 -9 -14 -23 81 -238 150 -342 76 -113 200
-232 324 -310 49 -32 214 -108 243 -113 7 -1 21 -5 32 -9 11 -3 31 -8 45 -11
14 -3 36 -8 50 -12 42 -11 301 -13 365 -3 83 13 255 67 255 80 0 6 4 8 8 5 15
-9 202 98 202 115 0 5 6 9 13 9 21 0 160 140 220 222 31 42 57 80 57 83 0 3
11 23 25 45 14 22 23 40 20 40 -3 0 1 10 9 23 23 37 60 150 82 257 3 14 7 89
8 167 2 105 -1 161 -14 220 -51 235 -141 399 -315 576 -74 76 -245 183 -360
227 -62 23 -172 52 -211 54 -16 2 -34 5 -40 8 -12 7 -260 2 -299 -6 -16 -3
-52 -11 -79 -17 -28 -7 -78 -9 -116 -5 -70 6 -170 33 -181 49 -3 5 -8 7 -10 6
-7 -5 -69 25 -69 33 0 5 -5 8 -11 8 -33 0 -165 125 -679 642 -311 312 -571
576 -578 586 -51 71 -90 137 -86 144 3 4 0 8 -5 8 -6 0 -11 5 -11 10 0 6 -9
30 -21 55 -20 42 -20 47 -5 87 14 40 35 114 42 148 19 91 22 133 19 245 -5
165 -19 238 -72 373 -15 38 -22 70 -17 80 4 9 8 23 10 31 7 35 51 130 76 166
29 40 170 190 425 451 76 78 219 226 318 328 456 473 484 498 578 537 15 6 27
14 27 18 0 4 6 8 13 9 6 0 31 8 55 16 24 9 48 14 53 11 5 -4 9 -2 9 2 0 10 52
9 100 -2 25 -5 31 -4 25 5 -8 13 13 12 94 -5 36 -7 161 -17 206 -16 60 0 190
15 190 21 0 1 13 3 29 5 16 2 36 7 45 11 9 4 18 8 21 9 82 20 279 116 326 158
33 30 44 37 54 37 5 0 10 7 10 15 0 8 4 15 9 15 8 0 97 86 127 123 57 69 174
267 158 267 -4 0 -1 6 5 13 12 16 46 118 56 168 3 19 8 48 11 64 3 17 7 64 9
105 2 41 5 77 6 80 1 3 1 9 0 13 -1 5 -4 32 -6 60 -2 29 -5 53 -6 55 -1 1 -2
10 -3 20 -10 91 -60 245 -109 332 -16 30 -35 65 -41 77 -6 13 -14 23 -18 23
-5 0 -8 5 -8 11 0 6 -6 16 -12 23 -7 7 -26 30 -43 51 -52 66 -111 122 -195
185 -76 56 -225 137 -268 145 -9 2 -18 4 -19 5 -2 2 -7 4 -13 5 -5 1 -11 3
-12 5 -2 1 -10 3 -18 5 -8 1 -42 10 -75 18 -33 8 -67 16 -75 17 -46 5 -290 6
-295 1z"/>
</g>
</svg>
